<svg width="40" height="40" viewBox="0 0 40 40" fill="none" xmlns="http://www.w3.org/2000/svg">
<g clip-path="url(#clip0_1_3)">
<path d="M20 39.304C30.6613 39.304 39.304 30.6613 39.304 20C39.304 9.33871 30.6613 0.696014 20 0.696014C9.33868 0.696014 0.695984 9.33871 0.695984 20C0.695984 30.6613 9.33868 39.304 20 39.304Z" fill="white"/>
<path d="M20 0.96C22.572 0.96 25.064 1.464 27.412 2.456C29.68 3.416 31.716 4.788 33.464 6.536C35.212 8.284 36.584 10.32 37.544 12.588C38.536 14.936 39.04 17.428 39.04 20C39.04 22.572 38.536 25.064 37.544 27.412C36.584 29.68 35.212 31.716 33.464 33.464C31.716 35.212 29.68 36.584 27.412 37.544C25.064 38.536 22.572 39.04 20 39.04C17.428 39.04 14.936 38.536 12.588 37.544C10.32 36.584 8.284 35.212 6.536 33.464C4.788 31.716 3.416 29.68 2.456 27.412C1.464 25.064 0.96 22.572 0.96 20C0.96 17.428 1.464 14.936 2.456 12.588C3.416 10.32 4.788 8.284 6.536 6.536C8.284 4.788 10.32 3.416 12.588 2.456C14.936 1.464 17.428 0.96 20 0.96ZM20 0C8.956 0 0 8.956 0 20C0 31.044 8.956 40 20 40C31.044 40 40 31.044 40 20C40 8.956 31.044 0 20 0Z" fill="#FFD5DA"/>
<path d="M29.292 12.928C29.184 13.72 29.048 14.78 28.888 15.836C28.332 19.548 27.772 23.264 27.196 26.972C27.112 27.512 26.992 28.056 26.792 28.564C26.4 29.552 25.644 29.888 24.648 29.524C24.156 29.344 23.684 29.084 23.244 28.796C21.324 27.528 19.424 26.232 17.516 24.948C17.372 24.852 17.224 24.756 17.1 24.64C16.612 24.2 16.52 23.584 16.892 23.044C17.076 22.78 17.308 22.544 17.544 22.324C19.3 20.672 21.068 19.028 22.824 17.376C23.112 17.104 23.372 16.804 23.64 16.508C23.784 16.348 23.872 16.156 23.712 15.96C23.552 15.764 23.34 15.804 23.156 15.92C22.572 16.288 21.984 16.66 21.412 17.048C19.364 18.452 17.324 19.868 15.276 21.272C14.58 21.752 13.868 22.22 13.012 22.372C12.688 22.428 12.328 22.456 12.016 22.38C10.74 22.068 9.47601 21.716 8.21201 21.364C7.92001 21.284 7.63201 21.16 7.37601 21.004C6.93601 20.74 6.87601 20.316 7.24401 19.956C7.47201 19.736 7.75601 19.548 8.04801 19.42C12.68 17.42 17.316 15.42 21.96 13.444C23.54 12.768 25.144 12.14 26.74 11.504C27.02 11.392 27.316 11.296 27.612 11.24C28.748 11.024 29.304 11.508 29.292 12.928Z" fill="#FF2B44"/>
</g>
<defs>
<clipPath id="clip0_1_3">
<rect width="40" height="40" fill="white"/>
</clipPath>
</defs>
</svg>
